<svg width="64" height="64" viewBox="0 0 32 32" fill="none" xmlns="http://www.w3.org/2000/svg" shape-rendering="crispEdges">
  <!-- Background Shield Shape (Transparent per user preference for blending) -->
  
  <!-- Outer Crest/Shield Border -->
  <path d="M16 2L4 8V16C4 22 10 28 16 30C22 28 28 22 28 16V8L16 2Z" fill="#1e293b" />
  <path d="M16 4L6 9V16C6 21 11 26 16 28C21 26 26 21 26 16V9L16 4Z" fill="#0f172a" />

  <!-- Frog Body Base (Yellow) -->
  <rect x="12" y="16" width="8" height="8" fill="#facc15" />
  <rect x="10" y="18" width="12" height="4" fill="#facc15" />
  
  <!-- Arms/Legs -->
  <rect x="8" y="20" width="2" height="4" fill="#facc15" />
  <rect x="22" y="20" width="2" height="4" fill="#facc15" />
  <rect x="9" y="24" width="3" height="2" fill="#eab308" />
  <rect x="20" y="24" width="3" height="2" fill="#eab308" />

  <!-- Head -->
  <rect x="11" y="11" width="10" height="7" fill="#facc15" />
  
  <!-- Eyes -->
  <rect x="10" y="9" width="4" height="4" fill="#facc15" />
  <rect x="18" y="9" width="4" height="4" fill="#facc15" />
  <rect x="11" y="10" width="2" height="2" fill="white" />
  <rect x="19" y="10" width="2" height="2" fill="white" />
  <rect x="12" y="10" width="1" height="1" fill="black" />
  <rect x="20" y="10" width="1" height="1" fill="black" />

  <!-- Smile -->
  <path d="M13 16H19V17H13V16Z" fill="#1e293b" />
  <rect x="12" y="15" width="1" height="1" fill="#1e293b" />
  <rect x="19" y="15" width="1" height="1" fill="#1e293b" />

  <!-- Shading and Highlights -->
  <rect x="13" y="12" width="2" height="1" fill="#FEF08A" opacity="0.5" />
  <rect x="17" y="12" width="2" height="1" fill="#FEF08A" opacity="0.5" />
</svg>
